<?xml version="1.0" standalone="no"?>
<!DOCTYPE svg PUBLIC "-//W3C//DTD SVG 20010904//EN" "http://www.w3.org/TR/2001/REC-SVG-20010904/DTD/svg10.dtd">
<svg version="1.0" xmlns="http://www.w3.org/2000/svg" width="1024.000000pt" height="1024.000000pt"
    viewBox="0 0 1024.000000 1024.000000" preserveAspectRatio="xMidYMid meet">

    <defs>
        <mask id="iconMask">
            <rect width="1024" height="1024" fill="white" />
            <g transform="translate(0.000000,1024.000000) scale(0.100000,-0.100000)" fill="black">
                <path d="M0 5120 l0 -5120 5120 0 5120 0 0 5120 0 5120 -5120 0 -5120 0 0
-5120z m4390 1420 l0 -1270 180 0 180 0 0 450 0 450 1125 0 1125 0 -2 -1542
c-3 -1469 -4 -1546 -22 -1608 -71 -248 -256 -454 -484 -537 -144 -53 -260 -63
-407 -38 -286 50 -526 261 -615 540 -34 107 -40 303 -11 415 122 483 648 737
1086 525 50 -24 105 -53 123 -65 23 -16 32 -18 33 -8 2 29 2 93 1 596 l-2 522
-322 0 -323 0 -23 -98 c-45 -194 -139 -361 -286 -507 -132 -132 -292 -224
-466 -269 -124 -32 -282 -37 -1165 -34 l-870 3 -3 1860 c-1 1023 0 1866 3
1873 3 9 128 12 575 12 l570 0 0 -1270z" />
                <path d="M3540 5937 l0 -1574 738 -2 c782 -2 855 1 980 43 123 42 191 84 283
176 109 108 176 225 204 358 l7 32 -831 0 -831 0 0 1270 0 1270 -275 0 -275 0
0 -1573z" />
                <path d="M5868 5873 l-828 -3 0 -300 0 -300 830 0 830 0 0 305 c0 168 -1 304
-2 303 -2 -2 -375 -4 -830 -5z" />
                <path d="M6110 3689 c-25 -5 -73 -23 -108 -41 -274 -138 -351 -478 -165 -731
43 -58 161 -140 234 -162 177 -52 358 -7 487 121 89 89 133 184 140 303 6 107
-8 172 -55 263 -98 189 -315 289 -533 247z" />
            </g>
        </mask>
    </defs>

    <rect width="1024" height="1024" fill="#333333" />
    <rect width="1024" height="1024" fill="#eeeeee" mask="url(#iconMask)" />
</svg>